<svg width="64" height="64" viewBox="0 0 64 64" fill="none" xmlns="http://www.w3.org/2000/svg">
<path d="M43.3113 32L61.6541 13.6572C64.782 10.5293 64.782 5.47366 61.6541 2.34585C58.5263 -0.781951 53.4707 -0.781951 50.3429 2.34585L32 20.6887L13.6571 2.34585C10.5293 -0.781951 5.47366 -0.781951 2.34585 2.34585C-0.781951 5.47366 -0.781951 10.5293 2.34585 13.6572L20.6887 32L2.34585 50.3429C-0.781951 53.4707 -0.781951 58.5264 2.34585 61.6542C3.90576 63.2141 5.95362 63.998 8.00149 63.998C10.0494 63.998 12.0972 63.2141 13.6571 61.6542L32 43.3113L50.3429 61.6542C51.9028 63.2141 53.9506 63.998 55.9985 63.998C58.0464 63.998 60.0942 63.2141 61.6541 61.6542C64.782 58.5264 64.782 53.4707 61.6541 50.3429L43.3113 32Z" fill="#744BFC"/>
</svg>
