<svg width="96" height="64" viewBox="0 0 96 64" fill="none" xmlns="http://www.w3.org/2000/svg">
<path d="M92.0002 28H4.00001C1.79086 28 0 29.7909 0 32C0 34.2092 1.79086 36 4.00001 36H92.0002C94.2093 36 96.0002 34.2092 96.0002 32C96.0002 29.7909 94.2093 28 92.0002 28Z" fill="#744BFC"/>
<path d="M92.0002 0H4.00001C1.79086 0 0 1.79086 0 4.00001C0 6.20915 1.79086 8.00002 4.00001 8.00002H92.0002C94.2093 8.00002 96.0002 6.20915 96.0002 4.00001C96.0002 1.79086 94.2093 0 92.0002 0Z" fill="#744BFC"/>
<path d="M92.0002 56.002H4.00001C1.79086 56.002 0 57.7928 0 60.002C0 62.2111 1.79086 64.002 4.00001 64.002H92.0002C94.2093 64.002 96.0002 62.2111 96.0002 60.002C96.0002 57.7928 94.2093 56.002 92.0002 56.002Z" fill="#744BFC"/>
</svg>
