<svg width="37" height="36" viewBox="0 0 37 36" fill="none" xmlns="http://www.w3.org/2000/svg">
<path d="M33.9167 15H21.5833V3C21.5833 2.20435 21.2585 1.44129 20.6802 0.87868C20.102 0.316071 19.3178 0 18.5 0C17.6822 0 16.898 0.316071 16.3198 0.87868C15.7415 1.44129 15.4167 2.20435 15.4167 3V15H3.08333C2.26558 15 1.48133 15.3161 0.903088 15.8787C0.324851 16.4413 0 17.2044 0 18C0 18.7956 0.324851 19.5587 0.903088 20.1213C1.48133 20.6839 2.26558 21 3.08333 21H15.4167V33C15.4167 33.7956 15.7415 34.5587 16.3198 35.1213C16.898 35.6839 17.6822 36 18.5 36C19.3178 36 20.102 35.6839 20.6802 35.1213C21.2585 34.5587 21.5833 33.7956 21.5833 33V21H33.9167C34.7344 21 35.5187 20.6839 36.0969 20.1213C36.6752 19.5587 37 18.7956 37 18C37 17.2044 36.6752 16.4413 36.0969 15.8787C35.5187 15.3161 34.7344 15 33.9167 15Z" fill="white"/>
</svg>
