<svg width="64" height="64" viewBox="0 0 64 64" fill="none" xmlns="http://www.w3.org/2000/svg">
<path d="M62.8267 57.1873L50.4397 44.795C59.7083 32.4089 57.181 14.8542 44.795 5.58565C32.4089 -3.68294 14.8542 -1.1557 5.58565 11.2304C-3.68294 23.6164 -1.1557 41.1711 11.2304 50.4397C21.1799 57.885 34.8453 57.885 44.795 50.4397L57.1873 62.832C58.7446 64.3893 61.2694 64.3893 62.8266 62.832C64.3839 61.2747 64.3839 58.7498 62.8266 57.1926L62.8267 57.1873ZM28.1159 48.0478C17.1078 48.0478 8.18402 39.1241 8.18402 28.1159C8.18402 17.1078 17.1078 8.18402 28.1159 8.18402C39.1241 8.18402 48.0478 17.1078 48.0478 28.1159C48.0361 39.1191 39.1192 48.0361 28.1159 48.0478Z" fill="white"/>
</svg>
